<?xml version="1.0" standalone="no"?>
<!DOCTYPE svg PUBLIC "-//W3C//DTD SVG 20010904//EN"
 "http://www.w3.org/TR/2001/REC-SVG-20010904/DTD/svg10.dtd">
<svg version="1.0" xmlns="http://www.w3.org/2000/svg"
 width="1080.000000pt" height="1080.000000pt" viewBox="0 0 1080.000000 1080.000000"
 preserveAspectRatio="xMidYMid meet">
<metadata>
Created by potrace 1.14, written by Peter Selinger 2001-2017
</metadata>
<g transform="translate(0.000000,1080.000000) scale(0.100000,-0.100000)"
fill="#000000" stroke="none">
<path d="M6268 10785 c-2 -2 -52 -6 -113 -9 -60 -4 -121 -9 -135 -11 -14 -2
-59 -7 -100 -11 -41 -3 -84 -8 -95 -10 -23 -5 -55 -9 -135 -19 -175 -21 -529
-95 -777 -164 -653 -181 -1318 -472 -1803 -789 -101 -66 -309 -218 -373 -272
-241 -202 -356 -309 -388 -360 -44 -69 -75 -206 -54 -239 3 -7 8 -51 10 -99 3
-75 9 -127 15 -127 1 0 10 -36 19 -80 10 -44 37 -150 60 -235 23 -85 43 -162
45 -170 2 -8 21 -69 41 -135 74 -238 95 -315 140 -514 51 -220 75 -300 125
-405 l33 -69 -22 -51 c-19 -43 -77 -199 -85 -231 -2 -5 -6 -17 -9 -25 -46
-115 -137 -432 -137 -476 0 -13 -12 -29 -28 -40 -15 -9 -38 -28 -52 -40 -14
-12 -62 -54 -107 -93 -46 -38 -93 -81 -105 -94 -13 -13 -80 -84 -150 -158
-192 -203 -280 -300 -353 -389 -21 -25 -40 -47 -44 -50 -4 -3 -65 -75 -136
-160 -72 -85 -132 -157 -135 -160 -3 -3 -17 -21 -31 -40 -32 -41 -39 -50 -146
-166 -226 -246 -269 -324 -230 -417 18 -41 109 -125 184 -168 32 -18 76 -44
98 -56 216 -125 440 -193 620 -189 l70 1 0 -135 c1 -118 5 -194 19 -305 2 -16
7 -61 10 -100 6 -68 12 -109 23 -150 3 -16 1 -15 -14 6 -54 77 -306 326 -433
428 -221 178 -442 312 -685 416 -60 26 -123 53 -140 60 -106 47 -367 115 -465
121 l-75 4 -32 -53 c-55 -92 -46 -153 50 -346 104 -209 146 -248 522 -488 39
-24 96 -58 128 -74 31 -16 57 -34 57 -39 0 -6 -41 -90 -90 -187 -58 -113 -90
-187 -90 -208 0 -24 12 -44 48 -83 26 -28 63 -63 82 -77 35 -26 35 -26 36
-108 1 -90 13 -161 39 -221 13 -30 15 -56 11 -114 -4 -42 -8 -85 -11 -96 -2
-12 -6 -39 -9 -61 -22 -179 -59 -325 -163 -655 -108 -341 -122 -380 -167 -444
-83 -118 -114 -203 -110 -303 3 -96 34 -150 108 -188 56 -28 67 -30 165 -29
143 1 232 18 367 69 64 24 408 194 454 223 38 25 54 35 195 117 189 109 439
283 513 356 65 65 77 80 146 185 21 32 40 60 42 62 1 2 13 -3 26 -11 49 -32
244 -85 371 -102 67 -9 144 -29 212 -55 28 -10 88 -33 135 -50 194 -73 253
-95 425 -152 99 -32 187 -61 195 -63 8 -2 26 -8 40 -13 14 -5 28 -10 33 -10
11 -1 69 -13 90 -18 9 -3 15 -10 11 -15 -3 -5 -8 -188 -10 -407 -2 -218 -5
-401 -5 -407 -2 -38 11 -165 19 -185 31 -80 129 -123 333 -146 19 -2 111 -6
204 -8 234 -7 283 12 293 112 7 82 -8 110 -140 242 l-121 122 18 31 c11 18 41
64 69 102 48 68 167 264 215 357 14 26 28 45 31 43 8 -5 121 -18 143 -17 14 1
17 -4 12 -16 -4 -9 -30 -84 -57 -167 -27 -82 -54 -158 -60 -169 -15 -29 -10
-128 8 -167 23 -48 73 -98 114 -115 19 -8 62 -17 95 -19 163 -12 255 -17 420
-20 162 -3 247 -8 356 -20 20 -2 96 -9 170 -15 74 -6 145 -12 159 -14 14 -1
29 -11 34 -22 21 -47 81 -67 231 -80 316 -25 386 -22 460 20 23 12 50 21 61
20 10 -2 51 -6 89 -8 39 -3 97 -7 130 -10 80 -8 186 -15 320 -21 61 -3 137 -8
170 -10 33 -3 92 -7 130 -10 39 -3 88 -8 110 -10 22 -3 65 -7 95 -10 113 -12
126 -13 150 -19 25 -5 86 -14 149 -21 42 -5 89 -13 116 -20 11 -2 38 -9 59
-14 22 -5 43 -8 47 -6 4 3 24 7 45 11 79 12 209 105 258 183 22 35 60 148 127
381 18 63 78 246 132 405 54 160 100 295 101 300 2 6 6 17 9 25 4 8 29 78 55
155 57 162 154 417 188 490 12 28 26 63 29 78 4 15 11 30 16 33 5 3 9 13 9 22
0 9 7 30 15 46 18 35 102 266 141 386 l27 85 59 19 c144 46 284 136 430 277
137 133 186 247 163 383 -13 73 -123 301 -227 467 l-28 46 21 49 c11 27 24 58
29 69 36 87 118 328 127 375 40 211 -74 386 -254 392 -32 1 -61 3 -65 5 -3 2
0 27 8 56 16 60 51 233 58 292 3 22 9 58 12 80 4 22 8 53 9 70 2 16 6 71 11
120 10 120 11 631 1 775 -11 166 -15 211 -21 245 -2 17 -7 53 -11 80 -4 28 -9
59 -11 70 -2 11 -7 40 -10 65 -3 25 -19 101 -35 170 -16 69 -31 133 -33 143
-3 11 13 35 42 65 26 26 56 65 67 87 11 22 23 42 26 45 22 17 83 162 108 257
25 96 29 132 30 240 0 70 -4 146 -9 168 -5 22 -11 54 -14 70 -11 61 -49 163
-97 260 -132 265 -388 516 -671 658 -33 16 -38 24 -38 53 0 19 -7 80 -15 136
-9 57 -18 116 -20 133 -5 40 -16 103 -21 129 -3 11 -7 37 -10 56 -2 19 -6 42
-9 50 -2 8 -7 31 -10 50 -3 19 -9 55 -14 80 -13 65 -30 177 -37 240 -3 30 -7
71 -9 90 -2 19 -6 49 -8 65 -3 17 -9 53 -12 80 -22 156 -142 275 -367 363 -56
22 -116 46 -133 53 -16 7 -32 13 -35 13 -3 1 -25 9 -50 18 -135 50 -397 134
-479 153 -9 3 -77 23 -151 45 -133 41 -417 114 -475 123 -16 3 -50 10 -75 15
-51 12 -110 22 -155 27 -16 2 -57 8 -90 14 -78 13 -181 24 -380 40 -93 7 -670
13 -677 6z"/>
</g>
</svg>
